%TF.GenerationSoftware,KiCad,Pcbnew,9.0.4*%
%TF.CreationDate,2026-01-03T18:43:53-07:00*%
%TF.ProjectId,2_PCBCupid_GitHub_Example,325f5043-4243-4757-9069-645f47697448,rev?*%
%TF.SameCoordinates,Original*%
%TF.FileFunction,Legend,Top*%
%TF.FilePolarity,Positive*%
%FSLAX46Y46*%
G04 Gerber Fmt 4.6, Leading zero omitted, Abs format (unit mm)*
G04 Created by KiCad (PCBNEW 9.0.4) date 2026-01-03 18:43:53*
%MOMM*%
%LPD*%
G01*
G04 APERTURE LIST*
%ADD10C,0.150000*%
%ADD11C,0.120000*%
G04 APERTURE END LIST*
D10*
X131838867Y-85141600D02*
X131981724Y-85189219D01*
X131981724Y-85189219D02*
X132219819Y-85189219D01*
X132219819Y-85189219D02*
X132315057Y-85141600D01*
X132315057Y-85141600D02*
X132362676Y-85093980D01*
X132362676Y-85093980D02*
X132410295Y-84998742D01*
X132410295Y-84998742D02*
X132410295Y-84903504D01*
X132410295Y-84903504D02*
X132362676Y-84808266D01*
X132362676Y-84808266D02*
X132315057Y-84760647D01*
X132315057Y-84760647D02*
X132219819Y-84713028D01*
X132219819Y-84713028D02*
X132029343Y-84665409D01*
X132029343Y-84665409D02*
X131934105Y-84617790D01*
X131934105Y-84617790D02*
X131886486Y-84570171D01*
X131886486Y-84570171D02*
X131838867Y-84474933D01*
X131838867Y-84474933D02*
X131838867Y-84379695D01*
X131838867Y-84379695D02*
X131886486Y-84284457D01*
X131886486Y-84284457D02*
X131934105Y-84236838D01*
X131934105Y-84236838D02*
X132029343Y-84189219D01*
X132029343Y-84189219D02*
X132267438Y-84189219D01*
X132267438Y-84189219D02*
X132410295Y-84236838D01*
X132743629Y-84189219D02*
X132981724Y-85189219D01*
X132981724Y-85189219D02*
X133172200Y-84474933D01*
X133172200Y-84474933D02*
X133362676Y-85189219D01*
X133362676Y-85189219D02*
X133600772Y-84189219D01*
X133934105Y-84284457D02*
X133981724Y-84236838D01*
X133981724Y-84236838D02*
X134076962Y-84189219D01*
X134076962Y-84189219D02*
X134315057Y-84189219D01*
X134315057Y-84189219D02*
X134410295Y-84236838D01*
X134410295Y-84236838D02*
X134457914Y-84284457D01*
X134457914Y-84284457D02*
X134505533Y-84379695D01*
X134505533Y-84379695D02*
X134505533Y-84474933D01*
X134505533Y-84474933D02*
X134457914Y-84617790D01*
X134457914Y-84617790D02*
X133886486Y-85189219D01*
X133886486Y-85189219D02*
X134505533Y-85189219D01*
X130604419Y-89612694D02*
X129604419Y-89612694D01*
X129604419Y-89612694D02*
X129604419Y-89374599D01*
X129604419Y-89374599D02*
X129652038Y-89231742D01*
X129652038Y-89231742D02*
X129747276Y-89136504D01*
X129747276Y-89136504D02*
X129842514Y-89088885D01*
X129842514Y-89088885D02*
X130032990Y-89041266D01*
X130032990Y-89041266D02*
X130175847Y-89041266D01*
X130175847Y-89041266D02*
X130366323Y-89088885D01*
X130366323Y-89088885D02*
X130461561Y-89136504D01*
X130461561Y-89136504D02*
X130556800Y-89231742D01*
X130556800Y-89231742D02*
X130604419Y-89374599D01*
X130604419Y-89374599D02*
X130604419Y-89612694D01*
X130604419Y-88088885D02*
X130604419Y-88660313D01*
X130604419Y-88374599D02*
X129604419Y-88374599D01*
X129604419Y-88374599D02*
X129747276Y-88469837D01*
X129747276Y-88469837D02*
X129842514Y-88565075D01*
X129842514Y-88565075D02*
X129890133Y-88660313D01*
X129182019Y-92114666D02*
X128705828Y-92447999D01*
X129182019Y-92686094D02*
X128182019Y-92686094D01*
X128182019Y-92686094D02*
X128182019Y-92305142D01*
X128182019Y-92305142D02*
X128229638Y-92209904D01*
X128229638Y-92209904D02*
X128277257Y-92162285D01*
X128277257Y-92162285D02*
X128372495Y-92114666D01*
X128372495Y-92114666D02*
X128515352Y-92114666D01*
X128515352Y-92114666D02*
X128610590Y-92162285D01*
X128610590Y-92162285D02*
X128658209Y-92209904D01*
X128658209Y-92209904D02*
X128705828Y-92305142D01*
X128705828Y-92305142D02*
X128705828Y-92686094D01*
X129182019Y-91162285D02*
X129182019Y-91733713D01*
X129182019Y-91447999D02*
X128182019Y-91447999D01*
X128182019Y-91447999D02*
X128324876Y-91543237D01*
X128324876Y-91543237D02*
X128420114Y-91638475D01*
X128420114Y-91638475D02*
X128467733Y-91733713D01*
X137334666Y-86983219D02*
X137334666Y-87697504D01*
X137334666Y-87697504D02*
X137287047Y-87840361D01*
X137287047Y-87840361D02*
X137191809Y-87935600D01*
X137191809Y-87935600D02*
X137048952Y-87983219D01*
X137048952Y-87983219D02*
X136953714Y-87983219D01*
X138334666Y-87983219D02*
X137763238Y-87983219D01*
X138048952Y-87983219D02*
X138048952Y-86983219D01*
X138048952Y-86983219D02*
X137953714Y-87126076D01*
X137953714Y-87126076D02*
X137858476Y-87221314D01*
X137858476Y-87221314D02*
X137763238Y-87268933D01*
X138478419Y-92190866D02*
X138002228Y-92524199D01*
X138478419Y-92762294D02*
X137478419Y-92762294D01*
X137478419Y-92762294D02*
X137478419Y-92381342D01*
X137478419Y-92381342D02*
X137526038Y-92286104D01*
X137526038Y-92286104D02*
X137573657Y-92238485D01*
X137573657Y-92238485D02*
X137668895Y-92190866D01*
X137668895Y-92190866D02*
X137811752Y-92190866D01*
X137811752Y-92190866D02*
X137906990Y-92238485D01*
X137906990Y-92238485D02*
X137954609Y-92286104D01*
X137954609Y-92286104D02*
X138002228Y-92381342D01*
X138002228Y-92381342D02*
X138002228Y-92762294D01*
X137573657Y-91809913D02*
X137526038Y-91762294D01*
X137526038Y-91762294D02*
X137478419Y-91667056D01*
X137478419Y-91667056D02*
X137478419Y-91428961D01*
X137478419Y-91428961D02*
X137526038Y-91333723D01*
X137526038Y-91333723D02*
X137573657Y-91286104D01*
X137573657Y-91286104D02*
X137668895Y-91238485D01*
X137668895Y-91238485D02*
X137764133Y-91238485D01*
X137764133Y-91238485D02*
X137906990Y-91286104D01*
X137906990Y-91286104D02*
X138478419Y-91857532D01*
X138478419Y-91857532D02*
X138478419Y-91238485D01*
X136878219Y-90044494D02*
X135878219Y-90044494D01*
X135878219Y-90044494D02*
X135878219Y-89806399D01*
X135878219Y-89806399D02*
X135925838Y-89663542D01*
X135925838Y-89663542D02*
X136021076Y-89568304D01*
X136021076Y-89568304D02*
X136116314Y-89520685D01*
X136116314Y-89520685D02*
X136306790Y-89473066D01*
X136306790Y-89473066D02*
X136449647Y-89473066D01*
X136449647Y-89473066D02*
X136640123Y-89520685D01*
X136640123Y-89520685D02*
X136735361Y-89568304D01*
X136735361Y-89568304D02*
X136830600Y-89663542D01*
X136830600Y-89663542D02*
X136878219Y-89806399D01*
X136878219Y-89806399D02*
X136878219Y-90044494D01*
X135973457Y-89092113D02*
X135925838Y-89044494D01*
X135925838Y-89044494D02*
X135878219Y-88949256D01*
X135878219Y-88949256D02*
X135878219Y-88711161D01*
X135878219Y-88711161D02*
X135925838Y-88615923D01*
X135925838Y-88615923D02*
X135973457Y-88568304D01*
X135973457Y-88568304D02*
X136068695Y-88520685D01*
X136068695Y-88520685D02*
X136163933Y-88520685D01*
X136163933Y-88520685D02*
X136306790Y-88568304D01*
X136306790Y-88568304D02*
X136878219Y-89139732D01*
X136878219Y-89139732D02*
X136878219Y-88520685D01*
D11*
%TO.C,SW2*%
X130972200Y-84684400D02*
X130972200Y-84784400D01*
X130972200Y-86284400D02*
X135372200Y-86284400D01*
X135372200Y-83184400D02*
X130972200Y-83184400D01*
X135372200Y-84684400D02*
X135372200Y-84784400D01*
%TO.C,D1*%
X130967600Y-87189600D02*
X130967600Y-89874600D01*
X132887600Y-87189600D02*
X130967600Y-87189600D01*
X132887600Y-89874600D02*
X132887600Y-87189600D01*
%TO.C,R1*%
X131040136Y-91263800D02*
X131494264Y-91263800D01*
X131040136Y-92733800D02*
X131494264Y-92733800D01*
%TO.C,J1*%
X138523200Y-84599000D02*
X138523200Y-85169000D01*
X138523200Y-84599000D02*
X141283200Y-84599000D01*
X138523200Y-85169000D02*
X137053200Y-85169000D01*
X138523200Y-86789000D02*
X138523200Y-89899000D01*
X138523200Y-89899000D02*
X141283200Y-89899000D01*
X141283200Y-85169000D02*
X141283200Y-87709000D01*
X141283200Y-89329000D02*
X141283200Y-89899000D01*
%TO.C,R2*%
X135231136Y-91263800D02*
X135685264Y-91263800D01*
X135231136Y-92733800D02*
X135685264Y-92733800D01*
%TO.C,D2*%
X133685400Y-87138800D02*
X133685400Y-89823800D01*
X135605400Y-87138800D02*
X133685400Y-87138800D01*
X135605400Y-89823800D02*
X135605400Y-87138800D01*
%TD*%
M02*
