%TF.GenerationSoftware,KiCad,Pcbnew,9.0.4*%
%TF.CreationDate,2026-01-03T18:43:53-07:00*%
%TF.ProjectId,2_PCBCupid_GitHub_Example,325f5043-4243-4757-9069-645f47697448,rev?*%
%TF.SameCoordinates,Original*%
%TF.FileFunction,Copper,L1,Top*%
%TF.FilePolarity,Positive*%
%FSLAX46Y46*%
G04 Gerber Fmt 4.6, Leading zero omitted, Abs format (unit mm)*
G04 Created by KiCad (PCBNEW 9.0.4) date 2026-01-03 18:43:53*
%MOMM*%
%LPD*%
G01*
G04 APERTURE LIST*
G04 Aperture macros list*
%AMRoundRect*
0 Rectangle with rounded corners*
0 $1 Rounding radius*
0 $2 $3 $4 $5 $6 $7 $8 $9 X,Y pos of 4 corners*
0 Add a 4 corners polygon primitive as box body*
4,1,4,$2,$3,$4,$5,$6,$7,$8,$9,$2,$3,0*
0 Add four circle primitives for the rounded corners*
1,1,$1+$1,$2,$3*
1,1,$1+$1,$4,$5*
1,1,$1+$1,$6,$7*
1,1,$1+$1,$8,$9*
0 Add four rect primitives between the rounded corners*
20,1,$1+$1,$2,$3,$4,$5,0*
20,1,$1+$1,$4,$5,$6,$7,0*
20,1,$1+$1,$6,$7,$8,$9,0*
20,1,$1+$1,$8,$9,$2,$3,0*%
G04 Aperture macros list end*
%TA.AperFunction,SMDPad,CuDef*%
%ADD10R,0.900000X1.000000*%
%TD*%
%TA.AperFunction,SMDPad,CuDef*%
%ADD11RoundRect,0.243750X-0.456250X0.243750X-0.456250X-0.243750X0.456250X-0.243750X0.456250X0.243750X0*%
%TD*%
%TA.AperFunction,SMDPad,CuDef*%
%ADD12RoundRect,0.250000X-0.262500X-0.450000X0.262500X-0.450000X0.262500X0.450000X-0.262500X0.450000X0*%
%TD*%
%TA.AperFunction,SMDPad,CuDef*%
%ADD13R,2.510000X1.000000*%
%TD*%
%TA.AperFunction,ViaPad*%
%ADD14C,0.600000*%
%TD*%
%TA.AperFunction,Conductor*%
%ADD15C,0.200000*%
%TD*%
G04 APERTURE END LIST*
D10*
%TO.P,SW2,1,A*%
%TO.N,Net-(D1-K)*%
X135222200Y-85534400D03*
X131122200Y-85534400D03*
%TO.P,SW2,2,B*%
%TO.N,VCC*%
X135222200Y-83934400D03*
X131122200Y-83934400D03*
%TD*%
D11*
%TO.P,D1,1,K*%
%TO.N,Net-(D1-K)*%
X131927600Y-87937100D03*
%TO.P,D1,2,A*%
%TO.N,Net-(D1-A)*%
X131927600Y-89812100D03*
%TD*%
D12*
%TO.P,R1,1*%
%TO.N,Net-(D1-A)*%
X130354700Y-91998800D03*
%TO.P,R1,2*%
%TO.N,GND*%
X132179700Y-91998800D03*
%TD*%
D13*
%TO.P,J1,1,Pin_1*%
%TO.N,VCC*%
X138248200Y-85979000D03*
%TO.P,J1,2,Pin_2*%
%TO.N,GND*%
X141558200Y-88519000D03*
%TD*%
D12*
%TO.P,R2,1*%
%TO.N,Net-(D2-A)*%
X134545700Y-91998800D03*
%TO.P,R2,2*%
%TO.N,GND*%
X136370700Y-91998800D03*
%TD*%
D11*
%TO.P,D2,1,K*%
%TO.N,Net-(D1-K)*%
X134645400Y-87886300D03*
%TO.P,D2,2,A*%
%TO.N,Net-(D2-A)*%
X134645400Y-89761300D03*
%TD*%
D14*
%TO.N,GND*%
X139979400Y-88519000D03*
X131368800Y-91998800D03*
X135559800Y-91998800D03*
%TD*%
D15*
%TO.N,Net-(D1-A)*%
X130354700Y-90498300D02*
X130354700Y-91998800D01*
X131927600Y-89812100D02*
X131040900Y-89812100D01*
X131040900Y-89812100D02*
X130354700Y-90498300D01*
%TO.N,GND*%
X131368800Y-91998800D02*
X132179700Y-91998800D01*
X135559800Y-91998800D02*
X136370700Y-91998800D01*
X139979400Y-88519000D02*
X141558200Y-88519000D01*
%TO.N,Net-(D1-K)*%
X131122200Y-85534400D02*
X131122200Y-87131700D01*
X131122200Y-87131700D02*
X131927600Y-87937100D01*
X135222200Y-85534400D02*
X135222200Y-87309500D01*
X135222200Y-87309500D02*
X134645400Y-87886300D01*
X135222200Y-85534400D02*
X131122200Y-85534400D01*
%TO.N,Net-(D2-A)*%
X134645400Y-91899100D02*
X134545700Y-91998800D01*
X134645400Y-89761300D02*
X134645400Y-91899100D01*
%TO.N,VCC*%
X131122200Y-83934400D02*
X135222200Y-83934400D01*
X138248200Y-84705000D02*
X137477600Y-83934400D01*
X137477600Y-83934400D02*
X135222200Y-83934400D01*
X138248200Y-85979000D02*
X138248200Y-84705000D01*
%TD*%
M02*
